#!OML:ASF X:\für Bonn\!DataBase\2005_08_11_Bastian_Final\c3d\Bastian.ASF
:FULLY-SPECIFIED
:DEGREES
336
root 13.6734 17.3523 -0.816978 1098.02 -79.5012 -24.8508
lowerback 16.3026 -0.889971 -0.781665
upperback 13.3092 -2.16524 -0.55592
thorax 5.13724 -1.51277 0.0610829
lowerneck -8.3386 -6.70465 -2.37741
upperneck -8.28295 -8.71278 16.4662
head -0.170581 -4.63524 5.09615
rclavicle -1.78906e-014 1.35174e-014
rhumerus -22.5599 9.24631 -82.4673
rradius 25.7133
rwrist -5.98467
rhand -21.2251 4.5828
rfingers 7.12502
rthumb 5.15696 -25.3345
lclavicle -1.78906e-014 1.35174e-014
lhumerus -4.61124 -13.4263 -279.741
lradius 28.2247
lwrist -334.234
lhand -15.4547 -8.69817
lfingers 7.12502
lthumb 10.7262 21.008
rfemur -29.7355 -7.65825 25.4509
rtibia 52.6134
rfoot -14.5524 -5.25512
rtoes -3.61705
lfemur 15.9181 6.35368 -15.0399
ltibia 12.4198
lfoot -13.7544 -8.2451
ltoes -8.64609
337
root 13.5775 17.3467 -0.803481 1098.45 -79.5745 -25.2702
lowerback 16.0285 -0.982539 -0.672476
upperback 13.1792 -2.2561 -0.471656
thorax 5.13513 -1.54616 0.0945833
lowerneck -8.21104 -6.6962 -2.52526
upperneck -8.32513 -8.68017 16.4718
head -0.199114 -4.62064 5.12861
rclavicle 3.4191e-014 1.19271e-014
rhumerus -23.2681 8.53395 -82.3689
rradius 25.1905
rwrist -6.16058
rhand -21.1935 4.4185
rfingers 7.12502
rthumb 5.18748 -25.498
lclavicle 3.4191e-014 1.19271e-014
lhumerus -4.62409 -13.2578 -279.533
lradius 28.3194
lwrist -334.827
lhand -15.2747 -8.72554
lfingers 7.12502
lthumb 10.8998 20.9716
rfemur -30.0384 -7.70435 25.5639
rtibia 51.6302
rfoot -14.6983 -5.30599
rtoes -3.69544
lfemur 16.9624 6.25379 -15.0111
ltibia 11.0285
lfoot -13.4652 -7.99361
ltoes -8.97105
338
root 13.4806 17.34 -0.790409 1098.76 -79.6277 -25.5799
lowerback 15.77 -1.07646 -0.575937
upperback 13.0639 -2.35304 -0.381066
thorax 5.14283 -1.58477 0.141885
lowerneck -8.19543 -6.70109 -2.7073
upperneck -8.27105 -8.67577 16.4921
head -0.176128 -4.60924 5.16317
rclavicle 1.55052e-014 -1.59028e-015
rhumerus -24.0063 7.81462 -82.2482
rradius 24.6691
rwrist -6.25517
rhand -21.1484 4.26578
rfingers 7.12502
rthumb 5.23109 -25.6497
lclavicle 1.55052e-014 -1.59028e-015
lhumerus -4.59676 -13.0576 -279.304
lradius 28.389
lwrist -335.379
lhand -15.0795 -8.74313
lfingers 7.12502
lthumb 11.0881 20.944
rfemur -30.3264 -7.77275 25.6595
rtibia 50.6554
rfoot -14.8463 -5.35178
rtoes -3.63323
lfemur 18.1438 6.21303 -14.9665
ltibia 9.39417
lfoot -13.045 -7.76937
ltoes -9.57542
339
root 13.3816 17.3311 -0.777914 1099.03 -79.6435 -25.8686
lowerback 15.5417 -1.19297 -0.456415
upperback 12.9518 -2.47879 -0.299343
thorax 5.13771 -1.6362 0.170451
lowerneck -8.20905 -6.68838 -2.83565
upperneck -8.16885 -8.65741 16.4582
head -0.141541 -4.58781 5.17122
rclavicle -9.93923e-015 4.77083e-015
rhumerus -24.7066 7.1012 -82.1284
rradius 24.087
rwrist -6.23306
rhand -21.0041 4.11168
rfingers 7.12502
rthumb 5.37042 -25.8003
lclavicle -9.93923e-015 4.77083e-015
lhumerus -4.61886 -12.9082 -279.096
lradius 28.511
lwrist -335.869
lhand -14.9414 -8.73378
lfingers 7.12502
lthumb 11.2213 20.9461
rfemur -30.5707 -7.8226 25.7457
rtibia 49.6868
rfoot -15.009 -5.44247
rtoes -3.36224
lfemur 19.5053 6.12909 -14.9021
ltibia 7.42705
lfoot -12.4598 -7.55199
ltoes -9.92359
340
root 13.28 17.3218 -0.76626 1099.25 -79.6497 -26.0547
lowerback 15.2626 -1.29595 -0.358644
upperback 12.8426 -2.58908 -0.206083
thorax 5.16427 -1.68159 0.218964
lowerneck -8.22248 -6.68039 -2.94618
upperneck -8.11637 -8.64197 16.4165
head -0.122645 -4.57149 5.17532
rclavicle 1.11319e-014 -1.90833e-014
rhumerus -25.4056 6.48183 -81.9649
rradius 23.5273
rwrist -6.33268
rhand -20.7435 4.01247
rfingers 7.12502
rthumb 5.62196 -25.8929
lclavicle 1.11319e-014 -1.90833e-014
lhumerus -4.61179 -12.7445 -278.856
lradius 28.5852
lwrist -336.361
lhand -14.843 -8.77572
lfingers 7.12502
lthumb 11.3162 20.899
rfemur -30.8379 -7.87351 25.8071
rtibia 48.7336
rfoot -15.1698 -5.49044
rtoes -2.64743
lfemur 21.142 6.03361 -14.8589
ltibia 4.80737
lfoot -11.5194 -7.30946
ltoes -10.2204
341
root 13.1772 17.3099 -0.755405 1099.08 -79.6185 -25.8671
lowerback 15.017 -1.40645 -0.309276
upperback 12.7338 -2.71545 -0.11204
thorax 5.17649 -1.73884 0.297515
lowerneck -8.26102 -6.67294 -2.99587
upperneck -8.04604 -8.6337 16.268
head -0.103175 -4.55685 5.13581
rclavicle -1.19271e-014 7.95139e-016
rhumerus -26.1089 5.7635 -81.7303
rradius 22.9869
rwrist -6.23348
rhand -20.443 3.96189
rfingers 7.12502
rthumb 5.91211 -25.9356
lclavicle -1.19271e-014 7.95139e-016
lhumerus -4.62607 -12.6747 -278.609
lradius 28.6869
lwrist -336.704
lhand -14.809 -8.87573
lfingers 7.12502
lthumb 11.349 20.7972
rfemur -31.0695 -7.92799 25.7919
rtibia 47.8065
rfoot -15.3368 -5.60496
rtoes -2.01995
lfemur 23.8589 5.88052 -14.8774
ltibia 3.18055e-015
lfoot -9.44304 -6.85724
ltoes -10.623
342
root 13.0729 17.2967 -0.745754 1098.99 -79.5605 -25.7927
lowerback 14.8161 -1.52881 -0.222447
upperback 12.6511 -2.85751 -0.0367283
thorax 5.19241 -1.80209 0.337176
lowerneck -8.37192 -6.66256 -3.0264
upperneck -7.96842 -8.62684 16.174
head -0.0673381 -4.54218 5.10703
rclavicle 9.14409e-015 5.56597e-015
rhumerus -26.762 5.10128 -81.565
rradius 22.4359
rwrist -6.08912
rhand -20.1969 3.87914
rfingers 7.12502
rthumb 6.1497 -26.0116
lclavicle 9.14409e-015 5.56597e-015
lhumerus -4.60669 -12.5718 -278.414
lradius 28.7572
lwrist -337.055
lhand -14.7107 -9.01864
lfingers 7.12502
lthumb 11.4438 20.649
rfemur -31.2374 -7.92665 25.7845
rtibia 46.9021
rfoot -15.5298 -5.76996
rtoes -1.4134
lfemur 24.2632 5.70397 -14.852
ltibia -9.54166e-014
lfoot -9.80702 -6.8032
ltoes -10.8911
